<svg xmlns="http://www.w3.org/2000/svg" width="411.426" height="411.926" viewBox="0 0 411.426 411.926">
  <g id="facebook" transform="translate(-50.074 460.926)">
    <path id="Caminho_514" data-name="Caminho 514" d="M100.7-458.9c-19.5,4.7-36.5,17.9-44.6,34.4-6.5,13.1-6.2,4.3-5.9,169.7l.3,150.3,3.2,8.4A72.359,72.359,0,0,0,72.4-68.3C80.8-60.4,88-55.9,98.2-52.2l7.3,2.7,93.3.3L292-49V-216H259v-56h32.8l.4-30.8c.4-30.4.4-30.8,3.1-38.7,7-20.3,21.9-33,44.1-37.6,7.8-1.6,13.7-1.9,40.9-1.9H412v56.9l-20.9.3c-23,.3-23.5.5-28.5,7.2-2,2.6-2.1,4.1-2.1,23.4v20.7l25.8.3,25.9.2-.7,7.8c-.8,8.9-5.4,46.4-5.8,46.8-.1.1-10.4.5-22.9,1l-22.8.7V-49h23.3c26.2,0,30.3-.6,42.7-6.7,5.5-2.7,9.4-5.6,15-11.2,8.8-8.9,13-15.8,17.4-27.8l3.1-8.8v-307l-2.4-7.9c-6.3-20.1-22.5-35.2-43.7-40.6-7.5-1.9-11.6-2-157.3-1.9C114.1-460.9,108.2-460.8,100.7-458.9Z" fill="#fff"/>
  </g>
</svg>
