<svg xmlns="http://www.w3.org/2000/svg" width="1276.117" height="1279.225" viewBox="0 0 1276.117 1279.225">
  <g id="github" transform="translate(-26.593 1316.725)">
    <path id="Caminho_513" data-name="Caminho 513" d="M632.5-1315.9c-146.7,7.4-284,63.9-394,162-22.4,20-52.9,52.1-72.1,75.9C95.6-990.3,48.8-882.8,32.6-771c-5.1,35.5-6,49.6-6,93-.1,43.5.9,57.6,6,93C55.3-428.5,135.2-286.4,258-183.9A636.234,636.234,0,0,0,574.5-43.1c34.2,4.9,46,5.6,91,5.6,46.2-.1,60.9-1.1,98.5-7a637.575,637.575,0,0,0,185-59.6c186.9-94.2,317-274.4,347-480.8a644.57,644.57,0,0,0-24.6-291.3c-26.7-82.3-70.5-158.9-129-225.4-11.9-13.5-43.4-44.8-57.4-57C959.3-1268.3,798.2-1324.3,632.5-1315.9ZM712-1214.5c109.4,9.7,210.4,51.3,296.2,122,16.6,13.7,55,51.9,68.8,68.5a541.673,541.673,0,0,1,71,109.5c29.6,60.4,46.9,123.3,53.1,193,1.6,18,1.6,68.9,0,87C1191.1-520.2,1147.9-417,1073-328c-13.6,16.1-47,49.8-62.9,63.3A599.921,599.921,0,0,1,860.2-171c-12.7,5.5-34.4,14-35.7,14-.3,0-.5-25.6-.5-56.9,0-45.4-.3-59.4-1.5-68.8-3.5-26.6-11.8-47.2-26.5-65.7-5.5-6.9-20.2-20.6-22.2-20.6a.86.86,0,0,1-.8-.8c0-.4,5.3-1.4,11.8-2.1,6.4-.7,19.6-2.6,29.2-4.2,76.7-12.9,130.5-37.3,170.6-77.3,46.7-46.7,70.2-109.6,74.5-199.1,2.5-53.8-5.3-94.7-25.8-134.8a259.274,259.274,0,0,0-28.7-43.2c-4.2-5-7.4-9.7-7.2-10.5s1.6-5.5,3-10.4c11-37.2,11.3-75.9,1-117.1-3.6-14.3-10.1-32.8-12.1-34.3-1.1-.8-5.6-1.2-13.6-1.2-36.6,0-89.4,21.2-145.7,58.5l-8.5,5.6-12-3C761.3-955,719.6-960,667-960c-50.4,0-92.7,4.9-137.6,16.1l-16.2,4-12.8-8.4c-43.1-28.2-86.8-47.8-119.8-53.7-12.8-2.3-33.3-2.7-35.8-.8-2.7,2.3-9.5,23.1-13.8,42.8a242.25,242.25,0,0,0-5,49.3c0,24.6,2.7,43.3,9,62.6l2.7,8.4-4.9,5.4c-10.9,12-25.2,33.2-33,48.8-9.6,19-17.6,44-22,68.2-2.1,11.8-2.3,15.5-2.3,47.8.1,37.5,1,49.6,6.1,77.5,12.7,69.5,43.4,123.1,91.3,159.1,33,24.8,76.8,43,128.6,53.4,17.2,3.4,39.9,6.9,53.4,8.3l7.3.7-4.7,3.4c-6.4,4.6-17.8,16.2-23,23.5-8.6,12.1-16.3,30.1-20,47.1-3,13.8-3.5,25.8-3.5,82.2,0,37.2-.3,57.3-1,57.3-1.6,0-26.7-9.5-41.3-15.6C392-204.8,318.5-257.1,264.1-318.5c-74.6-84.1-120.3-183.7-134-292a554.96,554.96,0,0,1,2-149.5c19.3-128.6,86.8-247.8,188.4-332.4,85.2-71,193.7-114.9,302.5-122.6,8.5-.6,17.8-1.2,20.5-1.4C653.4-1217.2,695.8-1216,712-1214.5Z" fill="#fff"/>
  </g>
</svg>
