<svg xmlns="http://www.w3.org/2000/svg" width="550.175" height="552.705" viewBox="0 0 550.175 552.705">
  <g id="instagram" transform="translate(-74.9 625.667)">
    <path id="Caminho_515" data-name="Caminho 515" d="M207.5-624.4a128.684,128.684,0,0,0-14,2.9c-2.7.9-6.6,2-8.5,2.6-12.6,3.8-29.6,12.4-43.4,21.9-14.4,9.9-34.7,31.5-42,44.5-.9,1.6-2.8,4.8-4.1,7A149.482,149.482,0,0,0,84.1-521c-2.5,6.9-7.4,25.1-6.8,25.6.2.3-.2,3-.9,6.2-2,8.4-2,265,0,273.4.7,3.2,1.1,5.9.9,6.2-1.1,1.1,9.3,34.7,11,35.4a1.806,1.806,0,0,1,.7,1.5c0,1.3,5.1,11.9,6.1,12.7a9.573,9.573,0,0,1,1.3,2.7c.4,1.3,1.2,2.3,1.7,2.3s.9.6.9,1.2c0,.7,2.5,4.6,5.5,8.6a81.842,81.842,0,0,1,5.5,7.8c0,.8,25.8,26.5,30,29.8,13.4,10.8,33,21.3,50.2,26.9,10.3,3.4,14.4,4.4,27.2,6.7,8.4,1.4,261.5,1.4,270.5-.1,27.4-4.5,52.1-14.6,72.1-29.5,14.8-11,35-32.7,40.5-43.4a30.059,30.059,0,0,1,2.4-4,28.975,28.975,0,0,0,2.2-3.5c.8-1.7,2.4-4.8,3.6-7,2.7-5.2,4.3-9,7.6-18,2.2-6,6.8-23.4,6.5-24.8a39.114,39.114,0,0,1,1-6.5c1.7-7.6,1.7-264.8,0-272.4a38.359,38.359,0,0,1-1-6.1c.3-1.1-3.6-16.3-6-23.2-2.9-8.5-3-8.9-8.7-20.5-5.6-11.3-6.9-13.7-8.8-15.8a4.572,4.572,0,0,1-1.3-2.1,7.459,7.459,0,0,0-1.8-2.7,49.755,49.755,0,0,1-4.1-5.4c-4.4-6.4-31.5-32.5-40.1-38.5-9.2-6.5-9.4-6.6-22-13-10.5-5.4-20.7-8.9-38-13.2-5.8-1.5-20.7-1.7-141-1.9C239.4-625.8,215-625.6,207.5-624.4ZM483-580.1c2.5.6,6.3,1.7,8.5,2.2,15.2,4,34.5,14.9,47.9,27.1,7.9,7.1,20.8,22.3,22.8,26.8.7,1.6,1.6,3,2,3,.5,0,.8.6.8,1.4a4.808,4.808,0,0,0,1.3,2.8,40.939,40.939,0,0,1,3.6,6.8c1.3,3,2.9,6.7,3.7,8.1.7,1.4,1.1,2.9.8,3.1-.3.3.2,2.1,1,3.9,1.9,4.7,3.4,11.8,4.6,22.4,1.3,12.2,1.3,240,0,252-1,8.7-1.5,11.1-4.1,20.5-.7,2.5-1.3,4.9-1.5,5.5a55.25,55.25,0,0,1-2.8,6.7c-1.4,3.1-3.1,6.7-3.6,8a32.9,32.9,0,0,1-2.2,4.2c-.7,1.1-2.8,4.5-4.7,7.5-6.3,10.2-19.7,23.7-31.1,31.4-8.7,5.8-23.3,12.8-30.5,14.6-2.7.7-6.6,1.6-8.5,2.1-10.1,2.6-26.7,3-138,3-111.9,0-127.8-.4-139-3.1-15-3.6-32.9-11.9-43.6-20.1-10.3-8.1-33.4-33-33.4-36.2a31.779,31.779,0,0,0-2.6-4.8c-2.4-3.8-8.3-16.8-8.8-19.3a34.086,34.086,0,0,0-1.3-4c-1.6-4.3-3.2-12.6-4.3-22.5-.6-5.1-1-55.2-1-126,.1-122.7.3-129.7,4.4-144,.9-3,1.8-6.2,2-7,.9-3.4,7-16.6,9.2-20.2a23.689,23.689,0,0,0,2.4-4.3c0-1.5,9.1-12.8,15.9-19.8,18.2-18.6,45.2-31.4,69.6-33,2.8-.2,61.5-.3,130.5-.2C449.6-581.4,479.5-581.1,483-580.1Z" fill="#fff"/>
    <path id="Caminho_516" data-name="Caminho 516" d="M484-533.7a39.923,39.923,0,0,0-25.5,21.2c-2.5,5.3-2.8,7.1-2.9,15.5,0,8.5.3,10.2,2.9,15.5a44.13,44.13,0,0,0,19,19c5.4,2.6,7,2.9,16,2.8,8.9,0,10.6-.3,16-2.9a44.192,44.192,0,0,0,18.1-17c.7-1.1,2-5.3,2.9-9.3,2.2-8.9,1.2-16.2-3.5-25.8-5.5-11.2-17.9-19.1-31.1-19.9C491.5-534.8,486.7-534.5,484-533.7Z" fill="#fff"/>
    <path id="Caminho_517" data-name="Caminho 517" d="M326.5-490.9c-26,6.1-38.6,11.2-56.5,23.3-9.2,6.1-29,25.7-35.1,34.6-2.4,3.6-4.7,6.7-5,7-3.5,3.1-16.8,34.9-16.9,40.5a28.736,28.736,0,0,1-1.4,6c-1.8,5.1-2.1,11.4-2,34.5.1,18.3.3,19.3,4.6,35.5,7.7,28.7,26.1,55.5,51.5,74.6,10.4,7.8,26.2,16.3,36.8,19.8,3.9,1.3,8,2.7,9.3,3.2,8.1,3.1,18.4,4.3,38.2,4.3s30.1-1.2,38.2-4.3c1.3-.5,5.5-1.9,9.3-3.2,25.5-8.4,52.9-29.6,69.3-53.7,9.2-13.6,15.1-26.2,19-40.7,4.3-16.2,4.5-17.2,4.6-35.5.1-23.1-.2-29.4-2-34.5a28.737,28.737,0,0,1-1.4-6c-.1-5.6-13.4-37.4-16.9-40.5-.3-.3-2.6-3.4-5-7-2.5-3.6-9.7-11.7-16-18-21.8-21.8-42.8-32.9-74.1-39.4C366.6-492.2,333.5-492.5,326.5-490.9ZM364.2-447c2.9.6,7.8,1.5,10.8,2.2,17,3.4,46.8,23.7,52.3,35.5.6,1.3,1.4,2.3,1.9,2.3.4,0,.8.7.8,1.5s.4,1.5.8,1.5c1.1,0,10,17.8,10.6,21.2.1.7.8,3.2,1.4,5.5.7,2.4,1.7,6.2,2.3,8.4,2.4,9.1.7,42.6-2.4,47.6a11.661,11.661,0,0,0-1,3.4c-.6,3.1-6.9,17.3-7.9,17.7a1.923,1.923,0,0,0-.8,1.6,7.912,7.912,0,0,1-2.1,3.7,30.809,30.809,0,0,0-3.4,4.9c-1.4,2.6-17.1,17.9-22.1,21.6-5.6,4-19.2,10.5-27.4,13.2-7.2,2.3-16.8,3.5-28,3.5s-20.8-1.2-28-3.5c-8.2-2.7-21.8-9.2-27.4-13.2-5-3.7-20.7-19-22.1-21.6a30.805,30.805,0,0,0-3.4-4.9,7.912,7.912,0,0,1-2.1-3.7,1.923,1.923,0,0,0-.8-1.6c-1-.4-7.3-14.6-7.9-17.7a11.663,11.663,0,0,0-1-3.4c-3.1-5-4.8-38.5-2.4-47.6.6-2.2,1.6-6,2.3-8.4.6-2.3,1.3-4.8,1.4-5.5.6-3.4,9.5-21.2,10.6-21.2.4,0,.8-.7.8-1.5s.4-1.5.8-1.5c.5,0,1.3-1,1.9-2.3,5.5-11.8,35.2-32,52.3-35.6l10-2C341.3-448.1,357.9-448.2,364.2-447Z" fill="#fff"/>
  </g>
</svg>
