<svg xmlns="http://www.w3.org/2000/svg" width="979.377" height="979.125" viewBox="0 0 979.377 979.125">
  <g id="linkedin" transform="translate(-0.495 979.619)">
    <path id="Caminho_518" data-name="Caminho 518" d="M102.5-978.9C52.6-971.6,13.3-934.7,2.4-885,.6-876.8.5-863.4.5-490.5.5-70.7.1-100.3,6.1-81.9A119.292,119.292,0,0,0,81.8-6.1C100.3-.1,70.7-.5,490-.5c324.6,0,386.6-.2,392.5-1.4,48.1-9.5,83.3-44,95.1-93.1,1.8-7.2,1.9-25.1,2.2-388.5.2-270.2,0-383.8-.8-390.7a117.938,117.938,0,0,0-33.4-70.3c-16.3-16.4-35.1-26.9-58.6-32.8l-8.5-2.1-385-.2C277.5-979.7,105.9-979.4,102.5-978.9ZM265-813c26.2,7.4,46.7,27.9,55.2,55,2,6.4,2.3,9.6,2.3,22,0,16.8-1.3,23-7.5,35.7-10.3,21-30,37-52.1,42.3-11.5,2.7-27.8,2.7-38.5,0-27.8-7.1-49.9-29.2-57.5-57.5-2.8-10.4-3-28.9-.6-38.4,4-15.2,10-26,20.1-36.8a79.353,79.353,0,0,1,43.1-23.9C239-816.4,255.4-815.7,265-813ZM676.5-611c71,6.7,118.4,48.6,133.6,118,5.3,24.6,5.2,20.2,5.6,180.2l.4,148.8h-134l-.4-125.3c-.4-136.9-.1-130.5-6.3-150.7-7.8-25.5-23.1-41.2-45.7-47a86.585,86.585,0,0,0-32.1-2c-20.1,2.4-32.8,8.2-45.2,20.5-9.5,9.4-15,18.5-19.5,32.4-6,18.6-5.9,17-5.9,150.3V-164H398V-599l64.3.2,64.2.3.5,28.4.5,28.4,3.6-5.4c17.1-25.4,46-46.8,76.9-56.9C629.3-611,651.8-613.3,676.5-611ZM311.8-381.3,312-164H177V-380.8c0-119.3.3-217.2.7-217.5.3-.4,30.6-.6,67.2-.5l66.6.3Z" fill="#fff"/>
  </g>
</svg>
