<svg id="menu-aberto" xmlns="http://www.w3.org/2000/svg" width="384" height="194.12" viewBox="0 0 384 194.12">
  <path id="Caminho_513" data-name="Caminho 513" d="M368,154.668H16a16,16,0,0,1,0-32H368a16,16,0,0,1,0,32Zm0,0" transform="translate(0 -41.607)" fill="#fff"/>
  <path id="Caminho_514" data-name="Caminho 514" d="M368,32H16A16,16,0,0,1,16,0H368a16,16,0,0,1,0,32Zm0,0" fill="#fff"/>
  <path id="Caminho_515" data-name="Caminho 515" d="M368,277.332H16a16,16,0,0,1,0-32H368a16,16,0,1,1,0,32Zm0,0" transform="translate(0 -83.212)" fill="#fff"/>
</svg>
